<svg width="18" height="10" viewBox="0 0 18 10" fill="none" xmlns="http://www.w3.org/2000/svg">
<path d="M2.24996 5.00001C2.24996 3.57501 3.40829 2.41668 4.83329 2.41668H8.16663V0.833344L4.83329 0.833344C2.53329 0.833344 0.666626 2.70001 0.666626 5.00001C0.666626 7.30001 2.53329 9.16668 4.83329 9.16668L8.16663 9.16668L8.16663 7.58334H4.83329C3.40829 7.58334 2.24996 6.42501 2.24996 5.00001ZM5.66663 5.83334L12.3333 5.83334V4.16668L5.66663 4.16668V5.83334ZM13.1666 0.833344L9.83329 0.833344V2.41668H13.1666C14.5916 2.41668 15.75 3.57501 15.75 5.00001C15.75 6.42501 14.5916 7.58334 13.1666 7.58334H9.83329V9.16668H13.1666C15.4666 9.16668 17.3333 7.30001 17.3333 5.00001C17.3333 2.70001 15.4666 0.833344 13.1666 0.833344Z" fill="#82B284"/>
</svg>
